<?xml version="1.0" encoding="UTF-8"?>
<svg version="1.1" xmlns="http://www.w3.org/2000/svg" width="1199" height="936">
<path d="M0 0 C0.84820313 0.680625 1.69640625 1.36125 2.5703125 2.0625 C3.55644531 2.83980469 4.54257812 3.61710937 5.55859375 4.41796875 C19.65216053 16.26937718 28.67077132 34.99218167 34.5703125 52.0625 C34.8187793 52.77792969 35.06724609 53.49335937 35.32324219 54.23046875 C40.29137273 68.8641004 43.09930087 83.83374682 45.5703125 99.0625 C45.72628906 99.99835938 45.88226562 100.93421875 46.04296875 101.8984375 C48.19167766 115.10041475 49.05534954 128.34518721 49.7578125 141.6875 C49.82227066 142.91009018 49.82227066 142.91009018 49.88803101 144.15737915 C54.05645674 225.2346399 38.44766403 309.35546072 12.63037109 389.78857422 C11.63379758 392.86643023 10.65713681 395.9499556 9.68359375 399.03515625 C-6.04091584 448.20636917 -28.68142765 495.58793521 -53.98876953 540.50146484 C-55.5943165 543.3551056 -57.18238395 546.21811815 -58.76953125 549.08203125 C-65.12686725 560.52718236 -71.62207994 571.8832205 -78.24511719 583.17651367 C-83.35219307 591.89502179 -88.32857274 600.6836057 -93.28515625 609.48828125 C-96.28724762 614.81927893 -99.32413381 620.12981301 -102.3671875 625.4375 C-127.00405793 661.03055138 -127.00405793 661.03055138 -141.4296875 700.0625 C-128.04587269 702.21509846 -114.83662338 702.42118322 -101.3046875 702.375 C-100.19952789 702.37317719 -99.09436829 702.37135437 -97.95571899 702.36947632 C-80.2646322 702.32041476 -62.95465848 701.64785945 -45.4296875 699.0625 C-43.6974292 698.81306641 -43.6974292 698.81306641 -41.93017578 698.55859375 C-9.09931448 693.69409516 22.37286371 685.25561986 53.5703125 674.0625 C54.59850098 673.69656738 55.62668945 673.33063477 56.68603516 672.95361328 C94.19327672 659.40839518 126.04143657 637.04911433 153.91381836 608.92480469 C156.02461496 606.79555061 158.14350651 604.67460919 160.26367188 602.5546875 C161.63589191 601.17755672 163.0076534 599.79996884 164.37890625 598.421875 C165.30877602 597.490336 165.30877602 597.490336 166.25743103 596.53997803 C167.44928232 595.33534606 168.630863 594.12045582 169.80136108 592.89506531 C171.01866213 591.63398846 172.27038385 590.40553713 173.54849243 589.20613098 C177.09470741 585.65949466 178.98129283 583.09927069 179.38085938 578.02026367 C179.3614581 576.09018698 179.3291688 574.16022623 179.2890625 572.23046875 C179.11207956 561.01529435 178.94186458 549.80002314 178.77393818 538.58471012 C178.75149155 537.0869044 178.72903656 535.58909881 178.70657349 534.09129333 C178.69533146 533.34167967 178.68408944 532.59206601 178.67250675 531.81973678 C178.59651752 526.76729277 178.51835916 521.71488573 178.43917847 516.66249084 C177.70759011 469.82597097 177.38168289 422.99809486 177.38520181 376.15597731 C177.38484657 369.20746975 177.37311776 362.25901148 177.3592661 355.31051958 C177.34604026 348.41512733 177.3408313 341.51975686 177.34146518 334.6243521 C177.34171358 330.58959395 177.3392384 326.55489769 177.32828712 322.52015305 C177.25924218 295.25329657 178.15937839 268.03915507 181.3828125 240.9375 C181.46679291 240.22198975 181.55077332 239.50647949 181.63729858 238.76928711 C185.35778262 207.40102331 192.20333788 175.07601025 217.33203125 153.71484375 C229.76628629 144.22507706 242.91428341 139.63088187 258.5703125 141.0625 C279.37526642 145.18694507 295.25869715 165.04279325 307.28027344 181.32373047 C308.58876877 183.08737615 309.92445701 184.82751591 311.265625 186.56640625 C322.49484774 201.2889869 331.7057722 217.32303012 339.5703125 234.0625 C339.88919434 234.7229834 340.20807617 235.3834668 340.53662109 236.06396484 C358.58771144 273.55607053 366.78773784 314.82110989 366.8203125 356.25 C366.82132462 357.42328354 366.82132462 357.42328354 366.82235718 358.62026978 C366.79077904 381.89099289 363.75136313 404.38452724 358.5703125 427.0625 C358.38243164 427.88588867 358.19455078 428.70927734 358.00097656 429.55761719 C352.02807478 455.07819754 342.48716832 479.31086844 331.5703125 503.0625 C330.92690918 504.46338867 330.92690918 504.46338867 330.27050781 505.89257812 C319.67859933 528.63785581 306.11983619 550.12642294 291.6328125 570.5625 C290.86106689 571.65220093 290.86106689 571.65220093 290.07373047 572.76391602 C282.16127632 583.8967267 273.80781631 594.67766061 265.4140625 605.44921875 C264.62805664 606.45795044 264.62805664 606.45795044 263.82617188 607.48706055 C262.5703125 609.0625 262.5703125 609.0625 261.5703125 610.0625 C261.47016494 612.01198867 261.44121559 613.96514774 261.43901062 615.91720581 C261.43500244 617.19004929 261.43099426 618.46289276 261.42686462 619.77430725 C261.4273398 621.19833376 261.42787593 622.62236025 261.4284668 624.04638672 C261.42543679 625.53605757 261.42191578 627.02572749 261.41793823 628.51539612 C261.41003271 631.7325946 261.40489794 634.9497819 261.40164757 638.16698837 C261.39574373 643.26127268 261.37920633 648.35548687 261.36030579 653.44973755 C261.35396761 655.19363971 261.34764199 656.93754192 261.34132862 658.68144417 C261.3365799 659.99193462 261.3365799 659.99193462 261.33173525 661.32889962 C261.28967716 673.19223541 261.25672078 685.05554002 261.24438477 696.91894531 C261.23598485 704.91476789 261.21341692 712.9104183 261.1750291 720.90615475 C261.15532155 725.13585873 261.14284586 729.36530564 261.14786339 733.59505844 C261.15253531 737.58262932 261.13856696 741.56971488 261.11085129 745.55718803 C261.10398011 747.01352915 261.10376864 748.46992088 261.11105156 749.92625999 C261.16357044 761.61803284 259.32015873 772.84188003 251.5703125 782.0625 C241.59333495 791.45361013 230.94155712 796.67259854 217.109375 796.30859375 C206.26434204 795.25745979 197.52799084 789.77477158 190.1328125 781.96875 C181.2100887 771.08302697 180.12582496 758.98791666 180.27734375 745.4296875 C180.2829511 743.94182771 180.2872158 742.45396232 180.29020691 740.96609497 C180.30156625 737.08296954 180.33095449 733.20019008 180.36431885 729.31719971 C180.39521396 725.34172239 180.40875344 721.36618822 180.42382812 717.390625 C180.45583457 709.61442699 180.50692031 701.83851229 180.5703125 694.0625 C180.10115417 694.42456039 179.63199585 694.78662079 179.14862061 695.15965271 C176.97316116 696.83649845 174.79519037 698.51005311 172.6171875 700.18359375 C171.87968262 700.75283569 171.14217773 701.32207764 170.38232422 701.90856934 C106.83938622 750.67448277 25.25323351 772.98248323 -53.4296875 781.0625 C-54.25993439 781.14970306 -55.09018127 781.23690613 -55.94558716 781.32675171 C-71.06297395 782.88431103 -86.04938876 783.42670682 -101.2421875 783.375 C-102.87888397 783.37276428 -102.87888397 783.37276428 -104.54864502 783.3704834 C-120.70161464 783.33088917 -136.4807832 782.83155205 -152.4296875 780.0625 C-153.31027832 779.92328125 -154.19086914 779.7840625 -155.09814453 779.640625 C-179.65946684 775.72748053 -202.91341333 767.01534325 -218.7421875 746.875 C-227.24251802 734.50306145 -229.69805663 720.44842629 -227.8046875 705.6875 C-227.38598512 703.47131096 -226.92568199 701.26268068 -226.4296875 699.0625 C-226.16800781 697.89589844 -225.90632813 696.72929688 -225.63671875 695.52734375 C-218.21126703 665.89023841 -201.77320504 637.09973281 -186.7109375 610.83984375 C-183.36565174 604.99055995 -180.17377656 599.0644483 -176.9921875 593.125 C-172.09569016 584.01051574 -166.97963043 575.0485777 -161.73071289 566.13305664 C-156.92546318 557.95821941 -152.28564291 549.69892148 -147.67773438 541.41162109 C-143.71185505 534.29890274 -139.63043665 527.26351861 -135.4921875 520.25 C-127.74123415 507.06490713 -120.54863631 493.59488239 -113.4296875 480.0625 C-112.83124023 478.92876953 -112.23279297 477.79503906 -111.61621094 476.62695312 C-107.49257924 468.80308828 -103.43148247 460.94937573 -99.4296875 453.0625 C-98.60621826 451.44190674 -98.60621826 451.44190674 -97.76611328 449.78857422 C-60.26870177 375.45042892 -38.83234599 289.96148511 -39.4296875 86.0625 C-39.7596875 85.7325 -40.0896875 85.4025 -40.4296875 85.0625 C-45.24220019 99.33880461 -49.54866524 113.71300009 -53.4921875 128.25 C-53.68729919 128.96255951 -53.88241089 129.67511902 -54.08343506 130.40927124 C-62.10685202 159.79371693 -68.19854842 189.67284063 -74.58343124 219.44331551 C-95.68166411 317.80737548 -117.03321424 416.40129082 -230.4296875 672.0625 C-231.09895264 672.96282959 -231.09895264 672.96282959 -231.78173828 673.88134766 C-239.00884417 683.564036 -247.04513716 692.37507608 -255.4296875 701.0625 C-256.77933594 702.47402344 -256.77933594 702.47402344 -258.15625 703.9140625 C-263.88593186 709.78926009 -269.96259919 715.01702068 -276.4296875 720.0625 C-276.98833496 720.50819336 -277.54698242 720.95388672 -278.12255859 721.41308594 C-301.13598779 739.73079495 -327.41717375 753.24646164 -355.4296875 762.0625 C-356.68966553 762.4644458 -356.68966553 762.4644458 -357.97509766 762.87451172 C-397.87463048 775.44601312 -440.67288547 777.92689719 -481.4296875 768.0625 C-482.26145508 767.86172852 -483.09322266 767.66095703 -483.95019531 767.45410156 C-519.17906093 758.69748196 -552.46964163 741.37837063 -579.4296875 717.0625 C-579.94611816 716.60101562 -580.46254883 716.13953125 -580.99462891 715.6640625 C-591.30644816 706.43283265 -600.82547009 696.92726714 -609.4296875 686.0625 C-610.31576047 684.96692531 -611.20250235 683.87189135 -612.08984375 682.77734375 C-622.88355028 669.37259549 -631.97776006 655.03790566 -640.4296875 640.0625 C-640.83155273 639.35738281 -641.23341797 638.65226563 -641.64746094 637.92578125 C-677.97112196 573.64958496 -691.62733286 494.57307661 -691.6796875 421.4375 C-691.68069458 420.45371368 -691.68170166 419.46992737 -691.68273926 418.45632935 C-691.67105314 401.47966732 -690.84116804 384.8882436 -688.4296875 368.0625 C-688.31705566 367.20253418 -688.20442383 366.34256836 -688.08837891 365.45654297 C-679.40444055 301.70942598 -642.3580094 232.61019131 -591.4296875 193.0625 C-590.42421875 192.26328125 -589.41875 191.4640625 -588.3828125 190.640625 C-539.52850122 152.06469456 -474.72037585 125.20858078 -411.69750977 132.07617188 C-392.95103639 134.3532699 -375.70543359 139.84961534 -358.6796875 147.9375 C-357.63804443 148.43121094 -356.59640137 148.92492187 -355.52319336 149.43359375 C-348.49339653 152.85063151 -341.92639827 156.7213859 -335.4296875 161.0625 C-334.79256836 161.48547363 -334.15544922 161.90844727 -333.49902344 162.34423828 C-316.75622879 173.6375893 -301.41424991 187.32411684 -288.80859375 203.109375 C-286.07582268 206.50178046 -283.2652084 209.81845051 -280.4296875 213.125 C-279.91978271 213.72272217 -279.40987793 214.32044434 -278.88452148 214.9362793 C-275.86900784 218.45284996 -272.75211635 221.83396773 -269.5546875 225.1875 C-261.58944111 234.06347329 -257.6248641 244.11769206 -257.4296875 256.0625 C-258.63894629 268.75292368 -263.34571715 278.24043251 -273.13671875 286.375 C-282.90496519 293.56389687 -293.49939103 295.10508122 -305.4296875 294.0625 C-322.86755816 290.30976237 -334.83611261 274.26939055 -345.4296875 261.0625 C-355.83295996 248.25700347 -367.16541768 235.64101192 -381.4296875 227.0625 C-382.02056152 226.70704102 -382.61143555 226.35158203 -383.22021484 225.98535156 C-407.76847186 211.47652292 -433.72262 208.97604626 -461.30859375 215.94140625 C-494.88241938 224.86018329 -525.92658031 241.46101249 -551.4296875 265.0625 C-552.19539062 265.75730469 -552.96109375 266.45210938 -553.75 267.16796875 C-586.71173909 298.46160364 -609.12685996 354.14909483 -610.49984741 399.37347412 C-610.64580105 405.99853479 -610.67581655 412.62351757 -610.6796875 419.25 C-610.68036224 420.28961884 -610.68103699 421.32923767 -610.68173218 422.40036011 C-610.66286947 440.78938839 -609.81448281 458.82526773 -607.4296875 477.0625 C-607.2740332 478.2690625 -607.11837891 479.475625 -606.95800781 480.71875 C-599.39418377 536.76049619 -582.15446515 598.04149243 -542.4296875 640.0625 C-541.36292747 641.3297595 -540.30030202 642.60051294 -539.2421875 643.875 C-529.68467769 654.75078702 -518.8118799 663.62126428 -506.4296875 671.0625 C-505.7176416 671.49191895 -505.0055957 671.92133789 -504.27197266 672.36376953 C-468.03105244 693.94954435 -428.28894528 697.55622706 -387.68017578 687.57641602 C-359.11141312 680.19771454 -334.51760444 665.50577576 -313.4296875 645.0625 C-312.67945313 644.35222656 -311.92921875 643.64195312 -311.15625 642.91015625 C-248.86399687 582.71072585 -221.39288934 474.41870209 -190.07702637 360.550354 C-189.45220515 358.14903987 -188.8228461 355.74895921 -188.19238281 353.34912109 C-174.3224136 300.40938698 -162.96302061 246.76558942 -151.49133682 193.26483917 C-115.23057867 24.19502569 -115.23057867 24.19502569 -77.4296875 -2.9375 C-53.00874864 -18.29807387 -23.20308924 -17.59744994 0 0 Z M260.5703125 257.0625 C257.73018796 259.90262454 258.75960109 268.68883204 258.5222168 272.796875 C258.47774709 273.55356224 258.43327739 274.31024948 258.38746011 275.08986664 C257.39550165 292.33529352 257.29021451 309.55295889 257.33459306 326.8219223 C257.34361809 331.1027963 257.34161166 335.3836692 257.3412323 339.66455078 C257.34215715 346.82423784 257.35068602 353.98388147 257.36450195 361.14355469 C257.38031157 369.36568783 257.38549601 377.58777402 257.3847664 385.80992126 C257.38408682 394.67272186 257.39103794 403.53550493 257.400213 412.39830017 C257.40232186 414.91140817 257.403051 417.42451327 257.40345192 419.93762207 C257.35850074 444.01890937 257.35850074 444.01890937 258.5703125 468.0625 C280.33256473 439.94694002 286.8193101 391.54017749 286.7578125 357 C286.75654358 356.2668457 286.75527466 355.53369141 286.75396729 354.77832031 C286.64592398 322.01887507 279.92961626 286.44286989 262.5703125 258.0625 C261.9103125 257.7325 261.2503125 257.4025 260.5703125 257.0625 Z " fill="#000000" transform="translate(749.4296875,63.9375)"/>
<path d="M0 0 C10.83919678 9.21479399 17.318647 20.43488394 18.4921875 34.6640625 C19.12870359 49.3057006 15.04045675 61.99640206 5.21875 73.08984375 C-3.01401165 81.06246238 -14.35622797 86.81496479 -25.8203125 87.875 C-26.88765625 87.97941406 -26.88765625 87.97941406 -27.9765625 88.0859375 C-41.22615394 88.71001246 -53.5549762 83.7622549 -63.5078125 75.3125 C-73.30716408 65.98440437 -78.75471354 54.72104405 -79.16967773 41.26635742 C-79.25037391 33.73855668 -78.95595252 26.83517066 -75.8203125 19.875 C-75.418125 18.97523437 -75.0159375 18.07546875 -74.6015625 17.1484375 C-68.60033998 5.04597208 -58.81734535 -3.46748345 -46.0703125 -7.9375 C-30.09861876 -12.66779257 -13.38661487 -10.0863137 0 0 Z " fill="#000000" transform="translate(1032.8203125,100.125)"/>
</svg>
