<svg width="34" height="34" viewBox="0 0 34 34" fill="none" xmlns="http://www.w3.org/2000/svg">
<path d="M7.09076 5.71715H26.9286C28.0823 5.71715 29.189 6.17587 30.0048 6.99156C30.8206 7.80737 31.2792 8.91401 31.2792 10.0677V23.641C31.2792 24.7948 30.8207 25.9013 30.0048 26.7171C29.189 27.533 28.0825 27.9916 26.9286 27.9916H7.09076C5.93703 27.9915 4.8304 27.533 4.01459 26.7171C3.1989 25.9013 2.74017 24.7946 2.74017 23.641V10.0677C2.74023 8.91401 3.19878 7.80737 4.01459 6.99156C4.8304 6.17575 5.93703 5.71721 7.09076 5.71715ZM4.13275 23.641C4.13275 24.4254 4.44435 25.178 4.99896 25.7328C5.5537 26.2875 6.30625 26.5999 7.09076 26.6H26.9286C27.7132 26.6 28.4657 26.2876 29.0204 25.7328C29.5752 25.178 29.8876 24.4256 29.8876 23.641V13.3744H4.13275V23.641ZM22.2304 20.3353H25.3632C25.5477 20.3354 25.725 20.408 25.8554 20.5384C25.9858 20.6689 26.0584 20.8462 26.0585 21.0306C26.0585 21.215 25.9857 21.3923 25.8554 21.5228C25.725 21.6533 25.5477 21.7268 25.3632 21.7269H22.2304C22.0458 21.7269 21.8687 21.6533 21.7382 21.5228C21.6078 21.3923 21.5341 21.2151 21.5341 21.0306C21.5342 20.8462 21.6078 20.6689 21.7382 20.5384C21.8687 20.408 22.0459 20.3353 22.2304 20.3353ZM7.09076 7.10973C6.30625 7.10979 5.5537 7.4212 4.99896 7.97594C4.44423 8.53067 4.13281 9.28323 4.13275 10.0677V11.9818H29.8876V10.0677C29.8876 9.28323 29.5752 8.53067 29.0204 7.97594C28.4657 7.42132 27.7131 7.10973 26.9286 7.10973H7.09076Z" fill="#4CAF4F" stroke="#4CAF4F" stroke-width="0.696069"/>
</svg>
