<svg width="24" height="5" viewBox="0 0 24 5" fill="none" xmlns="http://www.w3.org/2000/svg">
<path d="M1.83642 4.65334C1.5421 4.65334 1.2591 4.60617 0.987427 4.51184C0.719523 4.41373 0.511992 4.28921 0.364833 4.13828L0.528971 3.81567C0.668583 3.9515 0.855361 4.06659 1.08931 4.16092C1.32702 4.25148 1.57606 4.29676 1.83642 4.29676C2.08546 4.29676 2.28733 4.26657 2.44203 4.2062C2.60051 4.14206 2.7156 4.05716 2.78729 3.9515C2.86275 3.84585 2.90049 3.72888 2.90049 3.60059C2.90049 3.44588 2.85521 3.32136 2.76465 3.22703C2.67786 3.1327 2.56278 3.05912 2.41939 3.00629C2.27601 2.94969 2.11753 2.90064 1.94396 2.85914C1.77038 2.81763 1.59681 2.77424 1.42324 2.72896C1.24967 2.6799 1.08931 2.61576 0.942147 2.53652C0.798762 2.45728 0.68179 2.35351 0.591231 2.22522C0.504445 2.09316 0.461052 1.92147 0.461052 1.71017C0.461052 1.51396 0.511992 1.33472 0.613871 1.17247C0.719523 1.00645 0.879888 0.874383 1.09497 0.776278C1.31004 0.674399 1.58549 0.623459 1.92132 0.623459C2.14394 0.623459 2.36468 0.655532 2.58353 0.719678C2.80238 0.780051 2.99105 0.86495 3.14952 0.974375L3.00803 1.30831C2.83823 1.19511 2.65711 1.1121 2.46467 1.05927C2.27601 1.00645 2.093 0.980036 1.91566 0.980036C1.67794 0.980036 1.48173 1.01211 1.32702 1.07625C1.17232 1.1404 1.05723 1.22719 0.981767 1.33661C0.910074 1.44226 0.874228 1.56301 0.874228 1.69885C0.874228 1.85355 0.917621 1.97807 1.00441 2.0724C1.09497 2.16674 1.21194 2.24032 1.35532 2.29314C1.50248 2.34597 1.66285 2.39313 1.83642 2.43464C2.00999 2.47615 2.18167 2.52143 2.35147 2.57048C2.52504 2.61953 2.68352 2.68368 2.82691 2.76292C2.97407 2.83838 3.09104 2.94026 3.17782 3.06855C3.26838 3.19685 3.31366 3.36476 3.31366 3.57229C3.31366 3.76473 3.26084 3.94396 3.15518 4.10998C3.04953 4.27223 2.88728 4.4043 2.66843 4.50618C2.45335 4.60428 2.17601 4.65334 1.83642 4.65334ZM4.22624 4.61938V0.657419H4.64507V4.61938H4.22624ZM5.93417 4.61938V0.657419H6.27943L9.01318 4.09866H8.83206V0.657419H9.24524V4.61938H8.89998L6.17189 1.17813H6.35301V4.61938H5.93417ZM12.276 4.65334C11.9741 4.65334 11.6949 4.60428 11.4383 4.50618C11.1855 4.4043 10.9648 4.2628 10.7761 4.08168C10.5912 3.90056 10.446 3.68737 10.3403 3.44211C10.2384 3.19685 10.1875 2.92894 10.1875 2.6384C10.1875 2.34785 10.2384 2.07995 10.3403 1.83469C10.446 1.58942 10.5931 1.37623 10.7818 1.19511C10.9704 1.01399 11.1912 0.874383 11.444 0.776278C11.7006 0.674399 11.9798 0.623459 12.2817 0.623459C12.5835 0.623459 12.859 0.670625 13.108 0.764958C13.3608 0.85929 13.5759 1.00268 13.7532 1.19511L13.4929 1.46113C13.3269 1.29511 13.1439 1.17625 12.9439 1.10455C12.7439 1.03286 12.5288 0.997015 12.2986 0.997015C12.0534 0.997015 11.827 1.03852 11.6194 1.12153C11.4157 1.20077 11.2365 1.31586 11.0818 1.46679C10.9308 1.61395 10.812 1.78752 10.7252 1.9875C10.6422 2.18372 10.6007 2.40068 10.6007 2.6384C10.6007 2.87234 10.6422 3.08931 10.7252 3.28929C10.812 3.48928 10.9308 3.66473 11.0818 3.81567C11.2365 3.96282 11.4157 4.07791 11.6194 4.16092C11.827 4.24016 12.0515 4.27978 12.293 4.27978C12.5194 4.27978 12.7326 4.24582 12.9326 4.1779C13.1363 4.10998 13.3231 3.9949 13.4929 3.83265L13.7306 4.1496C13.5419 4.31563 13.3212 4.44203 13.0684 4.52882C12.8156 4.61183 12.5515 4.65334 12.276 4.65334ZM13.3287 4.09866V2.6384H13.7306V4.1496L13.3287 4.09866ZM17.9934 4.65334C17.4878 4.65334 17.0897 4.50806 16.7992 4.21752C16.5086 3.92698 16.3634 3.49682 16.3634 2.92705V0.657419H16.7822V2.91008C16.7822 3.37796 16.8878 3.72322 17.0992 3.94584C17.3105 4.16847 17.6085 4.27978 17.9934 4.27978C18.3821 4.27978 18.6821 4.16847 18.8934 3.94584C19.1047 3.72322 19.2103 3.37796 19.2103 2.91008V0.657419H19.6178V2.92705C19.6178 3.49682 19.4726 3.92698 19.182 4.21752C18.8952 4.50806 18.499 4.65334 17.9934 4.65334ZM20.8799 4.61938V0.657419H22.3629C22.6987 0.657419 22.9873 0.712132 23.2288 0.821557C23.4703 0.927209 23.6552 1.08191 23.7835 1.28567C23.9156 1.48566 23.9816 1.72903 23.9816 2.0158C23.9816 2.29503 23.9156 2.53652 23.7835 2.74028C23.6552 2.94026 23.4703 3.09497 23.2288 3.20439C22.9873 3.31382 22.6987 3.36853 22.3629 3.36853H21.112L21.2988 3.17043V4.61938H20.8799ZM21.2988 3.20439L21.112 3.00063H22.3515C22.7477 3.00063 23.0477 2.91574 23.2515 2.74594C23.459 2.57237 23.5628 2.32899 23.5628 2.0158C23.5628 1.69885 23.459 1.45358 23.2515 1.28001C23.0477 1.10644 22.7477 1.01965 22.3515 1.01965H21.112L21.2988 0.821557V3.20439Z" fill="#E8E8E3"/>
</svg>
